<svg width="140" height="140" viewBox="0 0 140 140" fill="none" xmlns="http://www.w3.org/2000/svg">
<path d="M90.1676 65.1189C86.7656 68.558 81.6515 69.6772 77.2415 68.2689C76.9673 68.2022 76.8042 68.1578 76.6782 68.2912C76.5745 68.4172 76.5967 68.7507 76.5893 69.1954C76.5893 70.2108 76.5893 71.4412 76.5893 72.4788C76.5893 72.7012 76.5893 72.8864 76.5893 73.0866C76.5745 73.383 76.4781 73.3979 76.1075 73.3979C75.0106 73.3979 73.8766 73.3979 72.7723 73.3979C72.0385 73.4127 70.949 73.3979 70.4005 73.3979C70.2819 73.3904 70.23 73.3682 70.2078 73.3163C70.1485 71.8414 70.2004 62.5174 70.1856 60.746C70.1856 60.5533 70.3708 60.5904 70.5265 60.5756C71.4233 60.5756 74.7141 60.5756 76.0557 60.5756C76.3966 60.5756 76.6115 60.6645 76.9006 60.8646C79.3761 62.9918 83.3117 62.9695 85.6538 60.5385C88.2257 58.0037 88.0923 53.6678 85.387 51.2812C82.9337 49.0429 79.2427 49.1985 76.8042 51.2812C76.5078 51.4962 76.152 51.5184 75.7444 51.5036C74.5066 51.5036 71.9421 51.5036 70.8452 51.5036C70.5413 51.5184 70.2671 51.4517 70.2004 51.1478C69.8594 47.9015 67.5247 45.4408 64.2488 45.0999C63.8337 45.0331 63.7596 44.7737 63.7744 44.4254C63.8041 43.1061 63.7225 40.171 63.8041 38.9926C63.9152 38.6665 64.1895 38.7183 64.5526 38.7109C68.4438 38.9333 71.9495 40.9567 74.1212 43.951C74.3584 44.2772 74.6474 44.6255 75.0625 44.5959C75.5665 44.5588 76.2113 44.1437 76.7523 43.9807C78.3385 43.4026 80.0432 43.1506 81.7182 43.2321C92.8062 43.7732 97.987 57.2625 90.1824 65.0819L90.1676 65.0967V65.1189Z" fill="#1466FF"/>
<path d="M57.4302 51.3042C57.6007 51.6229 57.8601 51.5192 58.3567 51.5414C58.4975 51.5414 58.6384 51.5414 58.7866 51.5414C60.2022 51.5414 62.4109 51.5414 63.2781 51.5414C63.4115 51.5414 63.5523 51.5192 63.6413 51.4302C63.8266 51.2598 63.7599 50.7039 63.7302 50.3926C63.1817 44.1074 58.0454 39.1119 51.7454 38.7413C51.4416 38.7265 51.2118 38.7413 51.0932 38.8303C50.9746 38.9192 50.9524 39.0823 50.9524 39.2379C50.9524 40.3274 50.9524 43.4256 50.9524 44.5595C50.9079 45.1599 51.4267 45.1451 51.8863 45.2192C54.5841 45.612 56.7632 47.7095 57.2449 50.3926C57.3042 50.6816 57.3265 51.0448 57.4228 51.3042V51.319L57.4302 51.3042Z" fill="#1466FF"/>
<path d="M50.9076 56.1883C50.7371 55.8696 50.4777 55.9734 49.9811 55.9512C49.8403 55.9512 49.6995 55.9512 49.5513 55.9512C48.1356 55.9512 45.9269 55.9512 45.0598 55.9512C44.9263 55.9512 44.7855 55.9734 44.6966 56.0623C44.5113 56.2328 44.578 56.7887 44.6076 57.1C45.1561 63.3851 50.2924 68.3807 56.5924 68.7512C56.8963 68.7661 57.1261 68.7512 57.2446 68.6623C57.3632 68.5734 57.3855 68.4103 57.3855 68.2547C57.3855 67.1651 57.3855 64.067 57.3855 62.933C57.4299 62.3327 56.9111 62.3475 56.4516 62.2734C53.7537 61.8806 51.5747 59.783 51.0929 57.1C51.0336 56.8109 51.0114 56.4478 50.915 56.1883V56.1735L50.9076 56.1883Z" fill="#1466FF"/>
<path d="M8.66813 101.059C8.50508 101.059 8.37166 101.007 8.25308 100.896C8.13449 100.784 8.0752 100.644 8.0752 100.473V85.1754C8.0752 85.0049 8.13449 84.8641 8.25308 84.7529C8.37166 84.6417 8.51249 84.5898 8.66813 84.5898H10.8917C11.1288 84.5898 11.3067 84.6491 11.4327 84.7751C11.5513 84.9011 11.6328 84.9975 11.6847 85.0568L16.0799 93.0318L20.5269 85.0568C20.5566 84.9975 20.6381 84.9011 20.7567 84.7751C20.8753 84.6491 21.0531 84.5898 21.2977 84.5898H23.5212C23.6991 84.5898 23.84 84.6417 23.9511 84.7529C24.0623 84.8641 24.1216 85.0049 24.1216 85.1754V100.473C24.1216 100.644 24.0623 100.784 23.9511 100.896C23.84 101.007 23.6991 101.059 23.5212 101.059H21.0828C20.9197 101.059 20.7863 101.007 20.6751 100.896C20.564 100.784 20.5047 100.644 20.5047 100.473V90.9639L17.4659 96.5672C17.3843 96.708 17.2806 96.834 17.1546 96.9452C17.0286 97.0564 16.8581 97.1083 16.6506 97.1083H15.524C15.3165 97.1083 15.146 97.0564 15.02 96.9452C14.894 96.834 14.7902 96.708 14.7087 96.5672L11.6699 90.9639V100.473C11.6699 100.644 11.6106 100.784 11.4994 100.896C11.3882 101.007 11.2548 101.059 11.0918 101.059H8.65331H8.66813Z" fill="black"/>
<path d="M49.5441 101.289C48.0469 101.289 46.8017 101.074 45.8011 100.637C44.8006 100.199 44.0372 99.6359 43.5257 98.9318C43.0143 98.2351 42.7401 97.4865 42.7104 96.6935C42.7104 96.5675 42.7549 96.4563 42.8513 96.3525C42.9476 96.2488 43.0588 96.2043 43.1996 96.2043H45.6974C45.8975 96.2043 46.0531 96.2488 46.1643 96.3303C46.2755 96.4192 46.3718 96.523 46.4682 96.649C46.5794 96.9158 46.7498 97.1678 46.9944 97.4198C47.239 97.6718 47.5651 97.8719 47.9876 98.035C48.4101 98.198 48.9289 98.2796 49.5515 98.2796C50.5595 98.2796 51.3229 98.1165 51.8269 97.7904C52.3309 97.4643 52.5829 97.0196 52.5829 96.4563C52.5829 95.893 52.4495 95.7225 52.1752 95.4779C51.901 95.2259 51.4785 95.0036 50.893 94.8035C50.3075 94.6034 49.5367 94.381 48.5731 94.1512C47.4095 93.8992 46.4163 93.5805 45.5936 93.1803C44.7783 92.7801 44.1631 92.2687 43.7481 91.6387C43.333 91.0087 43.1329 90.223 43.1329 89.2891C43.1329 88.3553 43.3923 87.5251 43.9037 86.8062C44.4151 86.0799 45.1415 85.5166 46.0754 85.1015C47.0093 84.6864 48.121 84.4863 49.4107 84.4863C50.7003 84.4863 51.3748 84.6272 52.1752 84.9088C52.9757 85.1904 53.6428 85.5536 54.1838 86.0057C54.7175 86.4579 55.1325 86.9396 55.4067 87.451C55.6884 87.9624 55.8366 88.4664 55.8515 88.9482C55.8515 89.0742 55.807 89.1854 55.7106 89.2891C55.6143 89.3929 55.5031 89.4374 55.3623 89.4374H52.7459C52.5903 89.4374 52.4495 89.4077 52.3235 89.341C52.1975 89.2817 52.1011 89.1705 52.0196 89.0149C51.9232 88.6073 51.649 88.2589 51.1895 87.955C50.7299 87.6511 50.137 87.5029 49.4032 87.5029C48.6695 87.5029 48.0395 87.6437 47.5948 87.9254C47.1501 88.207 46.9277 88.6369 46.9277 89.2076C46.9277 89.7783 47.0389 89.8969 47.2687 90.1563C47.491 90.4157 47.8764 90.6381 48.4101 90.8308C48.9437 91.0235 49.6552 91.2384 50.5447 91.4756C51.9158 91.7572 53.0276 92.0908 53.8799 92.4762C54.7323 92.869 55.3623 93.3656 55.7699 93.9808C56.1776 94.5959 56.3777 95.3668 56.3777 96.3006C56.3777 97.2345 56.0886 98.2351 55.5031 98.9837C54.9176 99.7323 54.1171 100.303 53.1017 100.696C52.0789 101.096 50.893 101.289 49.5441 101.289Z" fill="black"/>
<path d="M59.2462 101.059C59.0757 101.059 58.9349 101.008 58.8237 100.896C58.7125 100.785 58.6606 100.652 58.6606 100.481V85.4355C58.6606 85.2651 58.7125 85.1242 58.8237 85.0205C58.9349 84.9093 59.0757 84.8574 59.2462 84.8574H61.7217C61.8922 84.8574 62.033 84.9093 62.1442 85.0205C62.2553 85.1317 62.3072 85.2651 62.3072 85.4355V90.7127L67.1174 85.2947C67.1767 85.2058 67.2879 85.1094 67.4361 85.0057C67.5844 84.9019 67.7845 84.8574 68.0291 84.8574H70.853C70.9938 84.8574 71.1124 84.9093 71.2013 85.0057C71.2977 85.1094 71.3421 85.2206 71.3421 85.3392C71.3421 85.4578 71.3125 85.5393 71.2458 85.6134L65.2497 92.6027L71.6905 100.289C71.7498 100.348 71.7868 100.444 71.7868 100.563C71.7868 100.681 71.7424 100.8 71.646 100.896C71.5497 101 71.4385 101.045 71.2977 101.045H68.3774C68.0958 101.045 67.8883 100.985 67.7474 100.859C67.6066 100.733 67.5177 100.652 67.4658 100.607L62.3072 94.6854V100.474C62.3072 100.644 62.2553 100.785 62.1442 100.889C62.033 101 61.8922 101.052 61.7217 101.052H59.2462V101.059Z" fill="black"/>
<path d="M74.2027 101.06C74.0322 101.06 73.8914 101.008 73.7802 100.897C73.6691 100.785 73.6172 100.645 73.6172 100.474V85.3023C73.6172 85.1319 73.6691 84.991 73.7802 84.8799C73.8914 84.7687 74.0322 84.7168 74.2027 84.7168H80.5768C81.8368 84.7168 82.9337 84.9095 83.8602 85.3023C84.7867 85.6951 85.513 86.2807 86.0318 87.0663C86.5507 87.852 86.8175 88.8303 86.8175 89.994C86.8175 91.1576 86.5581 92.1508 86.0318 92.9216C85.513 93.6924 84.7867 94.2631 83.8602 94.6337C82.9337 95.0043 81.8442 95.197 80.5768 95.197H77.4491V100.474C77.4491 100.645 77.3972 100.785 77.286 100.897C77.1748 101.008 77.034 101.06 76.8635 101.06H74.2027ZM77.3749 92.299H80.4582C81.2513 92.299 81.8739 92.1063 82.3111 91.7135C82.7559 91.3281 82.9782 90.7425 82.9782 89.9643C82.9782 89.1861 82.7781 88.7191 82.3853 88.2818C81.985 87.8446 81.3476 87.6296 80.4582 87.6296H77.3749V92.299Z" fill="black"/>
<path d="M86.7138 101.06C86.573 101.06 86.4544 101.008 86.3654 100.912C86.2691 100.808 86.2246 100.697 86.2246 100.578C86.2246 100.46 86.232 100.43 86.2468 100.371L91.8056 85.4878C91.8501 85.3174 91.9465 85.1691 92.0873 85.0505C92.2281 84.9245 92.4208 84.8652 92.6728 84.8652H95.6597C95.9117 84.8652 96.1044 84.9245 96.2453 85.0505C96.3861 85.1765 96.475 85.3174 96.5269 85.4878L102.086 100.371C102.101 100.43 102.108 100.504 102.108 100.578C102.108 100.704 102.063 100.815 101.967 100.912C101.871 101.015 101.76 101.06 101.619 101.06H99.1877C98.958 101.06 98.7801 101.008 98.6763 100.897C98.5651 100.786 98.4984 100.689 98.4688 100.593L97.4682 97.9988H90.8866L89.886 100.593C89.8564 100.682 89.7822 100.786 89.6785 100.897C89.5673 101.008 89.3968 101.06 89.1671 101.06H86.736H86.7138ZM91.7315 95.0119H96.564L94.1626 88.3487L91.7315 95.0119Z" fill="black"/>
<path d="M26.6044 101.06C26.4636 101.06 26.345 101.008 26.2561 100.912C26.1597 100.808 26.1152 100.697 26.1152 100.578C26.1152 100.46 26.1226 100.43 26.1375 100.371L31.6963 85.4878C31.7407 85.3174 31.8371 85.1691 31.9779 85.0505C32.1187 84.9245 32.3114 84.8652 32.5634 84.8652H35.5504C35.8024 84.8652 35.9951 84.9245 36.1359 85.0505C36.2767 85.1765 36.3657 85.3174 36.4175 85.4878L41.9763 100.371C41.9912 100.43 41.9986 100.504 41.9986 100.578C41.9986 100.704 41.9541 100.815 41.8578 100.912C41.7614 101.015 41.6502 101.06 41.5094 101.06H39.0784C38.8486 101.06 38.6707 101.008 38.5669 100.897C38.4558 100.786 38.3891 100.689 38.3594 100.593L37.3588 97.9988H30.7772L29.7766 100.593C29.747 100.682 29.6729 100.786 29.5691 100.897C29.4579 101.008 29.2875 101.06 29.0577 101.06H26.6266H26.6044ZM31.6222 95.0119H36.4546L34.0532 88.3487L31.6222 95.0119Z" fill="black"/>
<path d="M109.727 101.289C108.23 101.289 106.985 101.074 105.984 100.637C104.984 100.199 104.22 99.6359 103.709 98.9318C103.197 98.2351 102.923 97.4865 102.894 96.6935C102.894 96.5675 102.938 96.4563 103.034 96.3525C103.131 96.2488 103.242 96.2043 103.383 96.2043H105.88C106.081 96.2043 106.236 96.2488 106.347 96.3303C106.459 96.4192 106.555 96.523 106.651 96.649C106.762 96.9158 106.933 97.1678 107.178 97.4198C107.422 97.6718 107.748 97.8719 108.171 98.035C108.593 98.198 109.112 98.2796 109.735 98.2796C110.743 98.2796 111.506 98.1165 112.01 97.7904C112.514 97.4643 112.766 97.0196 112.766 96.4563C112.766 95.893 112.633 95.7225 112.358 95.4779C112.084 95.2259 111.662 95.0036 111.076 94.8035C110.491 94.6034 109.72 94.381 108.756 94.1512C107.593 93.8992 106.599 93.5805 105.777 93.1803C104.961 92.7801 104.346 92.2687 103.931 91.6387C103.516 91.0087 103.316 90.223 103.316 89.2891C103.316 88.3553 103.575 87.5251 104.087 86.8062C104.598 86.0799 105.325 85.5166 106.258 85.1015C107.192 84.6864 108.304 84.4863 109.594 84.4863C110.883 84.4863 111.558 84.6272 112.358 84.9088C113.159 85.1904 113.826 85.5536 114.367 86.0057C114.901 86.4579 115.316 86.9396 115.59 87.451C115.871 87.9624 116.02 88.4664 116.035 88.9482C116.035 89.0742 115.99 89.1854 115.894 89.2891C115.797 89.3929 115.686 89.4374 115.545 89.4374H112.929C112.773 89.4374 112.633 89.4077 112.507 89.341C112.381 89.2817 112.284 89.1705 112.203 89.0149C112.106 88.6073 111.832 88.2589 111.373 87.955C110.913 87.6511 110.32 87.5029 109.586 87.5029C108.853 87.5029 108.223 87.6437 107.778 87.9254C107.333 88.207 107.111 88.6369 107.111 89.2076C107.111 89.7783 107.222 89.8969 107.452 90.1563C107.674 90.4157 108.06 90.6381 108.593 90.8308C109.127 91.0235 109.838 91.2384 110.728 91.4756C112.099 91.7572 113.211 92.0908 114.063 92.4762C114.915 92.869 115.545 93.3656 115.953 93.9808C116.361 94.5959 116.561 95.3668 116.561 96.3006C116.561 97.2345 116.272 98.2351 115.686 98.9837C115.101 99.7323 114.3 100.303 113.285 100.696C112.262 101.096 111.076 101.289 109.727 101.289Z" fill="black"/>
<path d="M125.092 101.289C123.595 101.289 122.35 101.074 121.349 100.637C120.348 100.199 119.585 99.6359 119.074 98.9318C118.562 98.2351 118.288 97.4865 118.258 96.6935C118.258 96.5675 118.303 96.4563 118.399 96.3525C118.495 96.2488 118.607 96.2043 118.747 96.2043H121.245C121.445 96.2043 121.601 96.2488 121.712 96.3303C121.823 96.4192 121.92 96.523 122.016 96.649C122.127 96.9158 122.298 97.1678 122.542 97.4198C122.787 97.6718 123.113 97.8719 123.535 98.035C123.958 98.198 124.477 98.2796 125.099 98.2796C126.107 98.2796 126.871 98.1165 127.375 97.7904C127.879 97.4643 128.131 97.0196 128.131 96.4563C128.131 95.893 127.997 95.7225 127.723 95.4779C127.449 95.2259 127.026 95.0036 126.441 94.8035C125.855 94.6034 125.085 94.381 124.121 94.1512C122.957 93.8992 121.964 93.5805 121.141 93.1803C120.326 92.7801 119.711 92.2687 119.296 91.6387C118.881 91.0087 118.681 90.223 118.681 89.2891C118.681 88.3553 118.94 87.5251 119.452 86.8062C119.963 86.0799 120.689 85.5166 121.623 85.1015C122.557 84.6864 123.669 84.4863 124.959 84.4863C126.248 84.4863 126.923 84.6272 127.723 84.9088C128.524 85.1904 129.191 85.5536 129.732 86.0057C130.265 86.4579 130.68 86.9396 130.955 87.451C131.236 87.9624 131.384 88.4664 131.399 88.9482C131.399 89.0742 131.355 89.1854 131.258 89.2891C131.162 89.3929 131.051 89.4374 130.91 89.4374H128.294C128.138 89.4374 127.997 89.4077 127.871 89.341C127.745 89.2817 127.649 89.1705 127.567 89.0149C127.471 88.6073 127.197 88.2589 126.737 87.955C126.278 87.6511 125.685 87.5029 124.951 87.5029C124.217 87.5029 123.587 87.6437 123.143 87.9254C122.698 88.207 122.476 88.6369 122.476 89.2076C122.476 89.7783 122.587 89.8969 122.817 90.1563C123.039 90.4157 123.424 90.6381 123.958 90.8308C124.492 91.0235 125.203 91.2384 126.093 91.4756C127.464 91.7572 128.575 92.0908 129.428 92.4762C130.28 92.869 130.91 93.3656 131.318 93.9808C131.725 94.5959 131.926 95.3668 131.926 96.3006C131.926 97.2345 131.636 98.2351 131.051 98.9837C130.465 99.7323 129.665 100.303 128.65 100.696C127.627 101.096 126.441 101.289 125.092 101.289Z" fill="black"/>
</svg>
